<?xml version="1.0" encoding="UTF-8"?>
<svg width="76px" height="76px" viewBox="0 0 76 76" version="1.1" xmlns="http://www.w3.org/2000/svg" xmlns:xlink="http://www.w3.org/1999/xlink">
    <!-- Generator: Sketch 39.1 (31720) - http://www.bohemiancoding.com/sketch -->
    <title>Facebook_5_</title>
    <desc>Created with Sketch.</desc>
    <defs></defs>
    <g id="Page-1" stroke="none" stroke-width="1" fill="none" fill-rule="evenodd">
        <g id="social-icon-set-christophekerebel" transform="translate(-40.000000, -259.000000)">
            <g id="Facebook_5_" transform="translate(40.000000, 259.000000)">
                <path d="M0,38 C0,59 17,76 38,76 C59,76 76,59 76,38 C76,17 59,0 38,0 C17,0 0,17 0,38 Z" id="Shape" fill="#3C549E"></path>
                <path d="M55.8,53.6 C55.8,54.7 54.9,55.6 53.8,55.6 L44.4,55.6 L44.4,41.4 L49.2,41.4 L49.9,35.9 L44.4,35.9 L44.4,32.4 C44.4,30.8 44.8,29.7 47.1,29.7 L50,29.7 L50,24.7 C49.5,24.6 47.8,24.5 45.7,24.5 C41.5,24.5 38.6,27.1 38.6,31.8 L38.6,35.9 L33.8,35.9 L33.8,41.4 L38.6,41.4 L38.6,55.6 L21,55.6 C19.9,55.6 19,54.7 19,53.6 L19,21 C19,19.9 19.9,19 21,19 L53.7,19 C54.8,19 55.7,19.9 55.7,21 L55.7,53.6 L55.8,53.6 Z" id="Facebook_3_" fill="#FFFFFF"></path>
            </g>
        </g>
    </g>
</svg>