<?xml version="1.0" encoding="UTF-8"?>
<svg width="77px" height="77px" viewBox="0 0 77 77" version="1.1" xmlns="http://www.w3.org/2000/svg" xmlns:xlink="http://www.w3.org/1999/xlink">
    <!-- Generator: Sketch 39.1 (31720) - http://www.bohemiancoding.com/sketch -->
    <title>Instagram_6_</title>
    <desc>Created with Sketch.</desc>
    <defs></defs>
    <g id="Page-1" stroke="none" stroke-width="1" fill="none" fill-rule="evenodd">
        <g id="social-icon-set-christophekerebel" transform="translate(-970.000000, -367.000000)">
            <g id="_x30_4-FULL-COLOR" transform="translate(198.000000, 366.000000)">
                <g id="Instagram_6_" transform="translate(772.000000, 1.000000)">
                    <path d="M38.1,76.8 C59.0868205,76.8 76.1,59.7868205 76.1,38.8 C76.1,17.8131795 59.0868205,0.8 38.1,0.8 C17.1131795,0.8 0.1,17.8131795 0.1,38.8 C0.1,59.7868205 17.1131795,76.8 38.1,76.8 Z" id="Oval" fill="#3C549E"></path>
                    <path d="M53.1,20.4 L25.2,20.4 C22.8,20.4 20.8,22.3 20.8,24.7 L20.8,52.7 C20.8,55.1 22.8,57 25.2,57 L53.1,57 C55.5,57 57.5,55.1 57.5,52.7 L57.5,24.7 C57.4,22.3 55.5,20.4 53.1,20.4 L53.1,20.4 Z M47.1,26.1 C47.1,25.5 47.6,25 48.2,25 L51.6,25 C52.2,25 52.7,25.5 52.7,26.1 L52.7,29.5 C52.7,30.1 52.2,30.6 51.6,30.6 L48.2,30.6 C47.6,30.6 47.1,30.1 47.1,29.5 L47.1,26.1 L47.1,26.1 Z M39.1,31.7 C43,31.7 46.2,34.8 46.2,38.7 C46.2,42.6 43,45.7 39.1,45.7 C35.2,45.7 32.1,42.6 32.1,38.7 C32.1,34.9 35.2,31.7 39.1,31.7 L39.1,31.7 Z M54,52.4 C54,53 53.5,53.5 52.9,53.5 L25.4,53.5 C24.8,53.5 24.3,53 24.3,52.4 L24.3,35.2 L28.9,35.2 C28.3,36.1 28.1,37.7 28.1,38.7 C28.1,44.8 33.1,49.8 39.3,49.8 C45.5,49.8 50.5,44.8 50.5,38.7 C50.5,37.7 50.4,36.1 49.6,35.2 L54.2,35.2 L54.2,52.4 L54,52.4 Z" id="Instagram_2_" fill="#FFFFFF"></path>
                </g>
            </g>
        </g>
    </g>
</svg>