<?xml version="1.0" encoding="UTF-8"?>
<svg width="77px" height="77px" viewBox="0 0 77 77" version="1.1" xmlns="http://www.w3.org/2000/svg" xmlns:xlink="http://www.w3.org/1999/xlink">
    <!-- Generator: Sketch 39.1 (31720) - http://www.bohemiancoding.com/sketch -->
    <title>Twitter_6_</title>
    <desc>Created with Sketch.</desc>
    <defs></defs>
    <g id="Page-1" stroke="none" stroke-width="1" fill="none" fill-rule="evenodd">
        <g id="social-icon-set-christophekerebel" transform="translate(-843.000000, -367.000000)">
            <g id="_x30_4-FULL-COLOR" transform="translate(198.000000, 366.000000)">
                <g id="Twitter_6_" transform="translate(645.000000, 1.000000)">
                    <circle id="Oval" fill="#3C549E" cx="38.1" cy="38.8" r="38"></circle>
                    <path d="M55.4,23.6 C53.9,24.5 52.3,25.2 50.5,25.5 C49.1,24 47.1,23 44.9,23 C40.7,23 37.2,26.5 37.2,30.9 C37.2,31.5 37.3,32.1 37.4,32.7 C31,32.4 25.4,29.2 21.6,24.5 C20.9,25.7 20.6,27 20.6,28.5 C20.6,31.2 22,33.6 24,35.1 C22.7,35.1 21.6,34.7 20.5,34.1 L20.5,34.2 C20.5,38 23.1,41.2 26.7,41.9 C26.1,42.1 25.4,42.2 24.7,42.2 C24.2,42.2 23.7,42.2 23.3,42.1 C24.3,45.2 27.1,47.5 30.5,47.6 C27.9,49.7 24.6,51 21,51 C20.4,51 19.8,51 19.2,50.9 C22.6,53.1 26.6,54.4 31,54.4 C45.1,54.4 52.9,42.4 52.9,32 L52.9,31 C54.4,29.9 55.7,28.5 56.7,26.9 C55.3,27.5 53.8,28 52.3,28.1 C53.6,26.9 54.8,25.4 55.4,23.6 L55.4,23.6 Z" id="Twitter_2_" fill="#FFFFFF"></path>
                </g>
            </g>
        </g>
    </g>
</svg>